# xmcd
#
# Track frame offsets:
#	150
#	7309
#	17597
#	31776
#	45601
#	66336
#	84334
#	100220
#	124677
#	139971
#	164469
#
# Disc length: 2317 seconds
#
# Revision: 0
# Processed by: cddbd v1.5.1PL0 Copyright (c) Steve Scherf et al.
# Submitted via: MusicWizard 7.2.0
#
DISCID=8d090b0b
DTITLE=Friends Of Dean Martinez - Atardecer
DYEAR=1900
DGENRE=Acoustic
TTITLE0=Quickening
TTITLE1=Ethchlorvynol
TTITLE2=La Fin De L'ete
TTITLE3=Otra Vez
TTITLE4=Inner Sanctum
TTITLE5=Casa Mila
TTITLE6=Atardecer
TTITLE7=Twilight Sleep
TTITLE8=Contact
TTITLE9=Spoonie (Dark Side Of The Spoo
TTITLE10=Coppertone
EXTD=
EXTT0=
EXTT1=
EXTT2=
EXTT3=
EXTT4=
EXTT5=
EXTT6=
EXTT7=
EXTT8=
EXTT9=
EXTT10=
PLAYORDER=
